HIERARCHY
ROOT Hips
{
	OFFSET 0.00000 0.00000 0.00000
	CHANNELS 6 Xposition Yposition Zposition Yrotation Zrotation Xrotation 
	JOINT Lumbar
	{
		OFFSET 0 0 0
		CHANNELS 3 Zrotation Xrotation Yrotation
		JOINT Neck
		{
			OFFSET 0.00 0.2701 0.00
			CHANNELS 3 Zrotation Xrotation Yrotation
			End Site
			{
				OFFSET 0.00 0.1379 0.00
			}
		}
		JOINT RightShoulder
		{
			OFFSET 0.0119 0.2289 0.1181
			CHANNELS 3 Zrotation Xrotation Yrotation
			JOINT RightElbow
			{
				OFFSET 0.00 -0.1475 0.00
				CHANNELS 2 Zrotation Yrotation
				JOINT RightWrist
				{
					OFFSET 0.00 -0.1605 0.00
					CHANNELS 2 Zrotation Xrotation
					End Site
					{
						OFFSET 0.0040 -0.1068 0.0006
					}
				}
			}
		}
		JOINT LeftShoulder
		{
			OFFSET 0.0119 0.2289 -0.1181
			CHANNELS 3 Zrotation Xrotation Yrotation
			JOINT LeftElbow
			{
				OFFSET 0.00 -0.1475 0.00
				CHANNELS 2 Zrotation Yrotation
				JOINT LeftWrist
				{
					OFFSET 0.00 -0.1605 0.00
					CHANNELS 2 Zrotation Xrotation
					End Site
					{
						OFFSET 0.0040 -0.1068 -0.0006
					}
				}
			}
		}
	}
	JOINT RightHip
	{
		OFFSET 0.0316 -0.0424 0.0458
		CHANNELS 3 Zrotation Xrotation Yrotation
		JOINT RightKnee
		{
			OFFSET 0.00 -0.2438 0.00
			CHANNELS 1 Zrotation
			JOINT RightAnkle
			{
				OFFSET 0.00 -0.2449 0.00
				CHANNELS 3 Zrotation Xrotation Yrotation
				End Site
				{
					OFFSET 0.1237 -0.0542 0.0051
				}
			}
		}
	}
	JOINT LeftHip
	{
		OFFSET 0.0316 -0.0424 -0.0458
		CHANNELS 3 Zrotation Xrotation Yrotation
		JOINT LeftKnee
		{
			OFFSET 0.00 -0.2438 0.00
			CHANNELS 1 Zrotation
			JOINT LeftAnkle
			{
				OFFSET 0.00 -0.2449 0.00
				CHANNELS 3 Zrotation Xrotation Yrotation
				End Site
				{
					OFFSET 0.1237 -0.0542 -0.0051
				}
			}
		}
	}
}
MOTION
Frames: 22
Frame Time: 0.02
-0.00015 -6e-05 -0.0001 20.19922 -36.5351 -2.69795 56.68418 -0.11658 0.54118 -6.15426 -1.17733 -0.8869 159.20572 -76.92438 -56.1614 15.55699 71.70615 -1.78885 -9.55554 160.14225 71.45537 74.45746 9.97539 -80.01216 -2.0273 11.17846 49.4967 -1.00204 -9.82554 -18.88314 -7.98032 -4.10135 -4.27296 55.09111 4.03224 14.25464 -24.22831 -7.72442 3.3049 3.91074
-0.00025 -7e-05 -0.00013 20.18966 -36.52984 -2.70207 56.72501 -0.12848 0.53833 -6.31183 -1.18092 -0.89033 159.55113 -76.8631 -55.8135 15.54692 71.75394 -1.76787 -9.55971 160.40514 71.48521 74.08236 10.0047 -80.0107 -2.00514 11.20009 49.49945 -1.02521 -9.95305 -18.8848 -7.95831 -4.08698 -4.26734 55.10157 4.00918 14.16096 -24.22894 -7.72972 3.31301 3.91436
-0.00036 -8e-05 -0.00016 20.18013 -36.52456 -2.70619 56.76577 -0.14036 0.53549 -6.46916 -1.18449 -0.89374 159.89583 -76.80197 -55.46627 15.53687 71.80165 -1.74687 -9.5638 160.66735 71.51499 73.70834 10.0339 -80.00923 -1.98298 11.22158 49.50216 -1.04839 -10.08071 -18.88647 -7.93631 -4.07262 -4.26172 55.11197 3.98616 14.06746 -24.22957 -7.73502 3.32111 3.91798
-0.00046 -9e-05 -0.00018 20.1706 -36.51931 -2.7103 56.80649 -0.15223 0.53265 -6.62628 -1.18806 -0.89715 160.24024 -76.74086 -55.11936 15.52682 71.84931 -1.72594 -9.56794 160.92946 71.54474 73.33437 10.06311 -80.00777 -1.96087 11.24314 49.5049 -1.07151 -10.20793 -18.88813 -7.91436 -4.05829 -4.25611 55.1224 3.96316 13.97404 -24.2302 -7.74031 3.32921 3.92159
-0.00056 -0.0001 -0.00021 20.16105 -36.51409 -2.71441 56.84726 -0.1641 0.52979 -6.78356 -1.19165 -0.90057 160.58523 -76.67963 -54.77198 15.51677 71.89702 -1.70508 -9.57218 161.19218 71.57454 72.95935 10.09244 -80.00631 -1.93881 11.26486 49.50771 -1.09457 -10.33475 -18.88979 -7.8924 -4.04397 -4.25052 55.13288 3.94013 13.8805 -24.23083 -7.74562 3.33731 3.9252
-0.00067 -0.00012 -0.00024 20.15156 -36.50868 -2.71853 56.888 -0.17598 0.52701 -6.94099 -1.19518 -0.90398 160.92926 -76.61871 -54.4251 15.50673 71.94471 -1.68379 -9.57598 161.45328 71.60428 72.58745 10.12136 -80.00483 -1.91644 11.28587 49.5102 -1.11802 -10.46414 -18.89146 -7.87034 -4.02954 -4.24483 55.14311 3.91716 13.78713 -24.23147 -7.75091 3.34541 3.92882
-0.00077 -0.00013 -0.00027 20.14196 -36.50367 -2.72263 56.92875 -0.18784 0.52407 -7.09791 -1.19882 -0.90739 161.2749 -76.55721 -54.07752 15.49665 71.99239 -1.66336 -9.58063 161.71739 71.63409 72.20969 10.15107 -80.00339 -1.89468 11.30828 49.51334 -1.14067 -10.58832 -18.89312 -7.8485 -4.01533 -4.23934 55.15384 3.89407 13.69346 -24.23209 -7.75621 3.35352 3.93243
-0.00087 -0.00014 -0.0003 20.13246 -36.49828 -2.72675 56.9695 -0.19973 0.52128 -7.25535 -1.20236 -0.91081 161.61892 -76.49629 -53.73074 15.48663 72.04008 -1.64219 -9.58453 161.97865 71.66387 71.83734 10.18007 -80.00193 -1.8724 11.32943 49.51587 -1.16404 -10.71715 -18.89478 -7.82647 -4.00092 -4.23367 55.1641 3.87111 13.60018 -24.23272 -7.7615 3.36161 3.93605
-0.00097 -0.00015 -0.00032 20.12307 -36.49245 -2.73088 57.01026 -0.21163 0.51866 -7.41334 -1.20579 -0.91422 161.96173 -76.43588 -53.38411 15.47661 72.08783 -1.6199 -9.5874 162.23686 71.69349 71.4714 10.20812 -80.00038 -1.84932 11.34889 49.51766 -1.1884 -10.85242 -18.89646 -7.80416 -3.98625 -4.22776 55.17386 3.8482 13.50686 -24.23337 -7.76679 3.36969 3.93967
-0.00108 -0.00016 -0.00035 20.11303 -36.48922 -2.73493 57.05098 -0.22339 0.51502 -7.56793 -1.20987 -0.91764 162.31383 -76.37191 -53.03408 15.46636 72.13539 -1.6034 -9.59585 162.51395 71.72366 71.06796 10.24142 -79.99913 -1.83035 11.37766 49.52372 -1.2074 -10.95291 -18.89807 -7.78331 -3.97303 -4.22316 55.18668 3.82471 13.41219 -24.23392 -7.77215 3.3779 3.94327
-0.00118 -0.00017 -0.00038 20.10437 -36.48045 -2.73914 57.09174 -0.23548 0.51354 -7.72981 -1.21258 -0.92104 162.64478 -76.31585 -52.6929 15.45675 72.18325 -1.57511 -9.59275 162.7503 71.75291 70.74404 10.26378 -79.99738 -1.80301 11.38705 49.52076 -1.23747 -11.12526 -18.89982 -7.75948 -3.9568 -4.21586 55.19292 3.80265 13.32142 -24.23469 -7.77731 3.38577 3.9469
-0.00126 -0.00019 -0.0004 20.09944 -36.45694 -2.74404 57.13309 -0.24834 0.51814 -7.91101 -1.21144 -0.92441 162.92971 -76.27875 -52.36232 15.44774 72.23346 -1.51071 -9.55588 162.88136 71.77781 70.6369 10.25463 -79.99368 -1.74998 11.34048 49.49303 -1.30013 -11.50941 -18.90204 -7.72657 -3.93166 -4.2006 55.18199 3.78278 13.23219 -24.23605 -7.78239 3.39326 3.95097
-0.00133 -0.0002 -0.00043 20.0959 -36.42777 -2.74907 57.17435 -0.26157 0.52489 -8.09963 -1.20892 -0.92776 163.19103 -76.25022 -52.04323 15.43961 72.28429 -1.43524 -9.50778 162.9703 71.80225 70.60975 10.23479 -79.98987 -1.68912 11.27493 49.45627 -1.37349 -11.96295 -18.90438 -7.69086 -3.90362 -4.18273 55.16431 3.76462 13.14828 -24.23762 -7.7872 3.40032 3.95504
-0.0014 -0.00022 -0.00045 20.09176 -36.40088 -2.75388 57.21539 -0.27474 0.53055 -8.28535 -1.2071 -0.9311 163.45549 -76.21938 -51.7277 15.43182 72.33308 -1.3672 -9.46624 163.07431 71.82792 70.54706 10.22081 -79.98612 -1.6335 11.21996 49.42363 -1.44056 -12.37532 -18.90661 -7.65701 -3.87729 -4.16638 55.1491 3.74689 13.06824 -24.23908 -7.79183 3.4072 3.95887
-0.00147 -0.00023 -0.00048 20.08752 -36.37521 -2.75934 57.25768 -0.28749 0.53668 -8.46927 -1.205 -0.93448 163.75254 -76.18135 -51.37478 15.42086 72.38683 -1.28872 -9.41868 163.19548 71.84873 70.48158 10.20252 -79.98116 -1.57044 11.1569 49.39083 -1.51376 -12.82883 -18.90906 -7.62062 -3.84924 -4.14857 55.1363 3.7243 12.96278 -24.24058 -7.79769 3.4156 3.96367
-0.00155 -0.00024 -0.0005 20.08375 -36.34567 -2.76351 57.29718 -0.30114 0.54236 -8.65849 -1.20311 -0.9378 163.97538 -76.16098 -51.10286 15.41675 72.43348 -1.22976 -9.38079 163.27084 71.88026 70.44029 10.19075 -79.98019 -1.52141 11.10595 49.35634 -1.57663 -13.21269 -18.9111 -7.58892 -3.82413 -4.13322 55.11702 3.71197 12.91012 -24.24206 -7.801 3.42082 3.96649
-0.00163 -0.00025 -0.00052 20.08149 -36.30667 -2.76386 57.33026 -0.31765 0.54617 -8.86211 -1.20259 -0.94097 164.00454 -76.18214 -51.04919 15.43089 72.43347 -1.22379 -9.37384 163.23039 71.93616 70.45101 10.19904 -79.97897 -1.51018 11.09473 49.31849 -1.60905 -13.39021 -18.91169 -7.57036 -3.80737 -4.12514 55.08028 3.72992 13.01455 -24.24345 -7.79657 3.41648 3.96338
-0.00172 -0.00026 -0.00054 20.07954 -36.26401 -2.76294 57.36026 -0.33494 0.5495 -9.07047 -1.20226 -0.94411 163.95824 -76.22208 -51.07759 15.45187 72.43105 -1.23838 -9.37655 163.14485 72.0043 70.48252 10.2143 -79.9849 -1.5141 11.0958 49.27947 -1.63056 -13.49459 -18.91192 -7.5567 -3.79373 -4.11966 55.03748 3.75774 13.16989 -24.24483 -7.78969 3.40909 3.95836
-0.0018 -0.00027 -0.00056 20.07709 -36.22313 -2.76278 57.39089 -0.35156 0.55312 -9.27566 -1.20154 -0.94728 163.9437 -76.2563 -51.06954 15.47012 72.44773 -1.2461 -9.37412 163.08022 72.06977 70.50116 10.22684 -79.99367 -1.51269 11.09051 49.24157 -1.65656 -13.6305 -18.91248 -7.54112 -3.77897 -4.11311 54.99826 3.77943 13.29326 -24.24622 -7.78445 3.4037 3.95456
-0.00188 -0.00028 -0.00058 20.07623 -36.18152 -2.7619 57.42491 -0.36956 0.55645 -9.48554 -1.20204 -0.95037 163.94148 -76.27744 -51.05638 15.4872 72.38952 -1.24357 -9.37527 163.01395 72.12117 70.53651 10.23743 -79.97253 -1.50355 11.08888 49.20077 -1.68487 -13.77622 -18.9123 -7.52419 -3.76288 -4.10601 54.95534 3.80791 13.45283 -24.24758 -7.77708 3.39582 3.94932
-0.00198 -0.00029 -0.0006 20.07206 -36.14066 -2.76214 57.45097 -0.38483 0.56032 -9.68651 -1.20009 -0.95362 163.89289 -76.33204 -51.07563 15.50781 72.4853 -1.26668 -9.37039 162.93895 72.20708 70.54162 10.25349 -80.02066 -1.51535 11.08148 49.16595 -1.70569 -13.88305 -18.9136 -7.51125 -3.75033 -4.10069 54.91875 3.82483 13.55065 -24.24901 -7.77345 3.39227 3.94655
-0.00215 -0.00032 -0.00058 20.05925 -36.10251 -2.76654 57.45692 -0.39266 0.5652 -9.86299 -1.19113 -0.95741 163.75626 -76.45958 -51.14858 15.54056 73.01923 -1.36169 -9.35473 162.86436 72.36722 70.45504 10.28582 -80.21075 -1.571 11.06612 49.14709 -1.70798 -13.9016 -18.91888 -7.50825 -3.74685 -4.09967 54.90133 3.80493 13.45112 -24.25056 -7.78181 3.40261 3.95168
